<?xml version="1.0" encoding="UTF-8" standalone="no"?>
<!DOCTYPE svg PUBLIC "-//W3C//DTD SVG 1.1//EN" "http://www.w3.org/Graphics/SVG/1.1/DTD/svg11.dtd">
<svg width="100%" height="100%" viewBox="0 0 512 512" version="1.1" xmlns="http://www.w3.org/2000/svg" xmlns:xlink="http://www.w3.org/1999/xlink" xml:space="preserve" xmlns:serif="http://www.serif.com/" style="fill-rule:evenodd;clip-rule:evenodd;stroke-linejoin:round;stroke-miterlimit:2;">
    <path d="M256,0C114.615,0 0,114.615 0,256C0,397.385 114.615,512 256,512C397.385,512 512,397.385 512,256C512,114.615 397.385,0 256,0ZM394.199,389.825C388.587,392.334 380.145,393.517 374.269,390.579L213.779,301.637L327.54,301.929L256.585,143.142L152.855,377.132C147.375,390.125 135.216,395.479 121.125,390.75C102.875,384.625 101.549,369.49 107.145,356.868L222.201,97.33C222.224,97.278 222.246,97.228 222.269,97.177C228.435,83.517 242.109,74.818 257.086,75.048C271.937,75.263 285.239,84.181 291.091,97.805L406.825,356.801C412.458,369.406 406.806,384.191 394.199,389.825Z" style="fill:url(#_Linear1);fill-rule:nonzero;"/>
    <defs>
        <linearGradient id="_Linear1" x1="0" y1="0" x2="1" y2="0" gradientUnits="userSpaceOnUse" gradientTransform="matrix(194,295,-295,194,121,67)"><stop offset="0" style="stop-color:rgb(239,47,36);stop-opacity:1"/><stop offset="1" style="stop-color:rgb(240,88,57);stop-opacity:1"/></linearGradient>
    </defs>
</svg>
