<?xml version="1.0" encoding="UTF-8" standalone="no"?>
<!DOCTYPE svg PUBLIC "-//W3C//DTD SVG 1.1//EN" "http://www.w3.org/Graphics/SVG/1.1/DTD/svg11.dtd">
<svg width="100%" height="100%" viewBox="0 0 24 24" version="1.1" xmlns="http://www.w3.org/2000/svg" xmlns:xlink="http://www.w3.org/1999/xlink" xml:space="preserve" xmlns:serif="http://www.serif.com/" style="fill-rule:evenodd;clip-rule:evenodd;stroke-linejoin:round;stroke-miterlimit:2;">
    <path d="M22.7,4.3C21.2,2.8 18.9,2.8 17.4,4.2C17.3,4.3 17.3,4.4 17.3,4.5C17.3,4.6 17.3,4.7 17.4,4.8L17.9,5.3C18,5.4 18.2,5.4 18.4,5.3C18.8,5 19.2,4.9 19.7,4.9C20.9,4.9 21.9,5.9 21.9,7.1C21.9,7.7 21.7,8.2 21.3,8.6C18.3,11.6 14.2,3.2 5.1,7.5C4.5,7.8 4.2,8.5 4.5,9.1L4.5,9.2L6,11.9C6.3,12.5 7.1,12.7 7.7,12.4L8.4,12C9.2,11.5 9.9,11 10.6,10.4C10.7,10.3 11,10.3 11.1,10.4C11.3,10.5 11.3,10.7 11.2,10.9L11.1,11C10.4,11.6 9.6,12.2 8.8,12.7L8.1,13C7.8,13.2 7.5,13.3 7.1,13.3C6.4,13.3 5.7,12.9 5.4,12.3L3.9,9.7C1.1,11.7 -0.7,15.6 0.3,20.5C0.3,20.7 0.5,20.8 0.7,20.8L2.4,20.8C2.6,20.8 2.7,20.7 2.8,20.5C3,19.1 4.2,18.2 5.6,18.4C6.7,18.5 7.6,19.4 7.7,20.5C7.7,20.7 7.9,20.8 8.1,20.8L9.7,20.8C9.9,20.8 10,20.7 10.1,20.5C10.3,19.1 11.5,18.2 12.9,18.4C14,18.5 14.9,19.4 15,20.5C15,20.7 15.2,20.8 15.4,20.8L17,20.8C17.2,20.8 17.4,20.6 17.4,20.4C17.4,18.1 18.1,15.5 19.8,14.2C25.7,9.6 24.1,5.7 22.7,4.3ZM16.5,11.2L15.3,10.6C15.3,10.2 15.6,9.9 16,9.9C16.4,9.9 16.7,10.2 16.7,10.6C16.8,10.9 16.7,11.1 16.5,11.2Z" style="fill:url(#_Linear1);fill-rule:nonzero;"/>
    <defs>
        <linearGradient id="_Linear1" x1="0" y1="0" x2="1" y2="0" gradientUnits="userSpaceOnUse" gradientTransform="matrix(-9,-16,16,-9,18,21)"><stop offset="0" style="stop-color:rgb(2,48,58);stop-opacity:1"/><stop offset="0.5" style="stop-color:rgb(2,59,58);stop-opacity:1"/><stop offset="1" style="stop-color:rgb(2,91,58);stop-opacity:1"/></linearGradient>
    </defs>
</svg>
