<?xml version="1.0" encoding="UTF-8" standalone="no"?>
<!DOCTYPE svg PUBLIC "-//W3C//DTD SVG 1.1//EN" "http://www.w3.org/Graphics/SVG/1.1/DTD/svg11.dtd">
<svg width="100%" height="100%" viewBox="0 0 24 24" version="1.1" xmlns="http://www.w3.org/2000/svg" xmlns:xlink="http://www.w3.org/1999/xlink" xml:space="preserve" xmlns:serif="http://www.serif.com/" style="fill-rule:evenodd;clip-rule:evenodd;stroke-linejoin:round;stroke-miterlimit:2;">
    <path d="M8.851,18.56C8.851,18.56 7.934,19.094 9.504,19.274C11.406,19.492 12.378,19.461 14.473,19.063C14.473,19.063 15.025,19.409 15.794,19.709C11.095,21.722 5.161,19.591 8.851,18.56M8.276,15.933C8.276,15.933 7.248,16.694 8.818,16.857C10.85,17.066 12.454,17.084 15.231,16.549C15.231,16.549 15.615,16.938 16.218,17.151C10.539,18.812 4.211,17.281 8.276,15.933M13.116,11.475C14.274,12.808 12.812,14.008 12.812,14.008C12.812,14.008 15.751,12.49 14.401,10.59C13.14,8.818 12.173,7.938 17.408,4.902C17.408,4.901 9.192,6.953 13.116,11.475M19.33,20.504C19.33,20.504 20.009,21.063 18.583,21.495C15.871,22.317 7.295,22.564 4.914,21.528C4.058,21.155 5.664,20.638 6.168,20.53C6.695,20.416 6.996,20.437 6.996,20.437C6.043,19.766 0.84,21.754 4.353,22.324C13.933,23.877 21.815,21.624 19.33,20.504M9.292,13.21C9.292,13.21 4.93,14.246 7.748,14.622C8.937,14.781 11.309,14.745 13.518,14.56C15.324,14.408 17.136,14.083 17.136,14.083C17.136,14.083 16.499,14.355 16.038,14.67C11.609,15.835 3.052,15.293 5.516,14.102C7.598,13.096 9.292,13.21 9.292,13.21M17.116,17.584C21.619,15.244 19.537,12.995 18.084,13.299C17.729,13.373 17.569,13.437 17.569,13.437C17.569,13.437 17.701,13.23 17.954,13.14C20.829,12.129 23.04,16.121 17.026,17.702C17.026,17.701 17.096,17.64 17.116,17.584M14.401,0C14.401,0 16.895,2.494 12.036,6.33C8.14,9.407 11.148,11.162 12.035,13.166C9.761,11.113 8.092,9.308 9.211,7.627C10.855,5.158 15.408,3.962 14.401,0M9.734,23.924C14.056,24.201 20.693,23.771 20.85,21.726C20.85,21.726 20.548,22.501 17.278,23.117C13.59,23.811 9.039,23.73 6.341,23.285C6.341,23.284 6.894,23.742 9.734,23.924" style="fill:url(#_Linear1);fill-rule:nonzero;"/>
    <defs>
        <linearGradient id="_Linear1" x1="0" y1="0" x2="1" y2="0" gradientUnits="userSpaceOnUse" gradientTransform="matrix(-14,-15,15,-14,18,19)"><stop offset="0" style="stop-color:rgb(255,118,95);stop-opacity:1"/><stop offset="1" style="stop-color:rgb(255,149,73);stop-opacity:1"/></linearGradient>
    </defs>
</svg>
